PathFileType	4	(X/Y/Z)	S1_rest_fast_right.trc
DataRate	CameraRate	NumFrames	NumMarkers	Units	OrigDataRate	OrigDataStartFrame	OrigNumFrames
250.00	250.00	15	18	mm	250.00	16210	21613
Frame#	Time	c7	r_should	l_should	clavicle	r_upa	r_elb_l	r_elb_m	r_low	r_wri_l	r_wri_m	r_met	l_upa	l_elb_l	l_elb_m	l_low	l_wri_l	l_wri_m	l_met
	X1	Y1	Z1	X2	Y2	Z2	X3	Y3	Z3	X4	Y4	Z4	X5	Y5	Z5	X6	Y6	Z6	X7	Y7	Z7	X8	Y8	Z8	X9	Y9	Z9	X10	Y10	Z10	X11	Y11	Z11	X12	Y12	Z12	X13	Y13	Z13	X14	Y14	Z14	X15	Y15	Z15	X16	Y16	Z16	X17	Y17	Z17	X18	Y18	Z18
16210	64.83600	435.89359	1418.81885	131.70605	520.81079	1348.92993	293.07657	464.64331	1371.25415	-71.18918	573.30640	1302.81702	94.16811	542.39404	1134.98706	321.86652	574.33844	1037.23291	327.11349	514.76276	1019.00055	240.84096	543.09625	901.26862	314.76767	614.97717	819.98053	341.08347	581.89526	802.03058	274.45078	599.45709	735.65460	369.79562	458.28815	1156.48877	-135.46750	467.98816	1075.21436	-152.15781	403.26779	1041.52795	-81.35692	456.25153	928.64575	-162.89252	545.91284	859.54834	-117.17189	489.57251	837.20740	-159.17799	584.75940	786.88049	-137.73422
16211	64.84000	435.88675	1418.81323	131.73651	520.81097	1348.91626	293.09415	464.63135	1371.26001	-71.17174	573.29321	1302.79932	94.18782	542.39380	1134.96997	321.87143	574.23187	1037.34729	327.02182	514.75873	1019.00122	240.84406	543.08167	901.25110	314.77505	614.96198	819.95801	341.09283	581.87506	802.01227	274.45602	599.42517	735.62567	369.80286	458.28033	1156.49658	-135.45703	467.94028	1075.25977	-152.21176	403.25256	1041.53027	-81.34768	456.23157	928.65411	-162.88879	545.89038	859.55347	-117.16425	489.55060	837.21973	-159.17967	584.73663	786.88135	-137.72388
16212	64.84400	435.88385	1418.80945	131.76740	520.81171	1348.90088	293.11469	464.62445	1371.26575	-71.15623	573.27600	1302.79614	94.20531	542.39484	1134.95996	321.88568	574.19971	1037.35742	327.01254	514.76514	1018.99170	240.84091	543.06213	901.23535	314.77924	614.93890	819.93994	341.10800	581.85803	802.00134	274.46738	599.39661	735.60168	369.81125	458.27744	1156.50513	-135.44261	467.92188	1075.27429	-152.21368	403.25040	1041.53345	-81.33710	456.21274	928.66742	-162.88635	545.87128	859.56146	-117.15465	489.52972	837.23035	-159.17563	584.71552	786.88452	-137.71599
16213	64.84800	435.87817	1418.80554	131.79785	520.81000	1348.89294	293.13596	464.62152	1371.26904	-71.13361	573.26099	1302.79004	94.23247	542.38531	1134.94897	321.90222	574.17773	1037.35303	327.02344	514.76587	1018.97681	240.83826	543.04230	901.22540	314.78311	614.91309	819.92725	341.12189	581.83429	801.99219	274.48010	599.36346	735.57629	369.81339	458.26608	1156.52136	-135.42654	467.91046	1075.28345	-152.20526	403.23965	1041.53967	-81.33113	456.19446	928.67969	-162.87537	545.85034	859.56561	-117.15238	489.50784	837.24640	-159.17188	584.69165	786.89252	-137.70906
16214	64.85200	435.87552	1418.80396	131.82265	520.80646	1348.88696	293.16455	464.61008	1371.27014	-71.10167	573.24481	1302.78186	94.25275	542.37854	1134.94312	321.91663	574.15533	1037.34143	327.03864	514.75458	1018.96405	240.84225	543.02368	901.21356	314.79440	614.89056	819.91315	341.13538	581.81122	801.97839	274.48987	599.33008	735.55853	369.82513	458.25870	1156.52515	-135.40437	467.90344	1075.28711	-152.18884	403.22324	1041.55298	-81.32178	456.17947	928.69104	-162.86589	545.83380	859.57025	-117.14536	489.49463	837.24731	-159.17363	584.67175	786.88873	-137.69545
16215	64.85600	435.86630	1418.79956	131.84906	520.80304	1348.87195	293.19095	464.59366	1371.27661	-71.07275	573.22528	1302.77759	94.27522	542.37903	1134.93445	321.93311	574.15015	1037.32434	327.05734	514.74884	1018.96082	240.85298	543.00427	901.20020	314.80222	614.87152	819.89569	341.14688	581.79089	801.95874	274.50604	599.29645	735.54327	369.83347	458.25302	1156.52490	-135.38037	467.89819	1075.29358	-152.17206	403.21164	1041.55432	-81.30550	456.16882	928.69891	-162.84903	545.82043	859.57227	-117.13267	489.48398	837.24194	-159.16483	584.65106	786.88037	-137.67711
16216	64.86000	435.86343	1418.79797	131.88223	520.79663	1348.85559	293.21783	464.58713	1371.27808	-71.04903	573.19977	1302.76965	94.28943	542.37189	1134.91199	321.95200	574.14294	1037.30518	327.07611	514.74078	1018.96057	240.87718	542.98932	901.18536	314.81357	614.85181	819.87842	341.15878	581.77722	801.94373	274.51044	599.26105	735.52063	369.84555	458.24252	1156.52588	-135.34833	467.89194	1075.29846	-152.15573	403.19675	1041.55200	-81.28754	456.15915	928.70142	-162.83580	545.80811	859.56891	-117.12416	489.47113	837.23926	-159.15288	584.62982	786.88000	-137.65939
16217	64.86400	435.86182	1418.79993	131.90892	520.79242	1348.83850	293.24454	464.58151	1371.28235	-71.02872	573.18176	1302.75488	94.31702	542.36139	1134.90491	321.98489	574.13214	1037.28174	327.09851	514.73712	1018.95081	240.89362	542.97687	901.17017	314.82895	614.83130	819.85657	341.17175	581.76379	801.92242	274.51901	599.23035	735.50281	369.85278	458.23734	1156.52319	-135.31865	467.97540	1075.21863	-151.97656	403.18808	1041.55249	-81.27251	456.15564	928.70117	-162.82198	545.79572	859.56061	-117.11300	489.45941	837.24646	-159.13954	584.61273	786.87848	-137.64674
16218	64.86800	435.85468	1418.79675	131.93175	520.78528	1348.81970	293.27548	464.57135	1371.28308	-71.00254	573.16571	1302.73767	94.35060	542.34772	1134.88940	322.01422	574.11255	1037.26013	327.11945	514.74536	1018.93188	240.89088	542.96332	901.15088	314.83755	614.81586	819.82635	341.18372	581.74921	801.89972	274.52472	599.20093	735.47980	369.86282	458.23865	1156.52014	-135.30046	468.08173	1075.10986	-151.75101	403.17981	1041.56018	-81.25546	456.14844	928.69849	-162.80875	545.78198	859.55585	-117.09793	489.44504	837.25031	-159.12378	584.59717	786.86755	-137.63533
16219	64.87200	435.84888	1418.79126	131.96204	520.78040	1348.80261	293.30399	464.56458	1371.28735	-70.97042	573.14459	1302.71375	94.37072	542.32642	1134.86157	322.03262	574.09137	1037.23999	327.14563	514.73767	1018.91205	240.90778	542.94714	901.12872	314.84534	614.79254	819.80133	341.19452	581.73273	801.87836	274.53745	599.17126	735.45764	369.87646	458.23318	1156.52539	-135.28078	468.01276	1075.17053	-151.83549	403.17795	1041.55896	-81.23280	456.14111	928.69672	-162.79390	545.76587	859.54944	-117.07889	489.42685	837.24927	-159.10532	584.58099	786.86169	-137.61627
16220	64.87600	435.84088	1418.78320	131.99094	520.77521	1348.78394	293.33466	464.55325	1371.28516	-70.93851	573.12573	1302.68994	94.40007	542.27472	1134.78186	321.95602	574.06702	1037.21716	327.17151	514.73169	1018.90228	240.91681	542.93311	901.10980	314.85568	614.77124	819.78070	341.20456	581.71082	801.86035	274.55307	599.14392	735.43097	369.89151	458.22079	1156.53259	-135.26196	468.08469	1075.09424	-151.67068	403.17853	1041.55737	-81.21639	456.13242	928.69482	-162.77531	545.75238	859.54559	-117.06220	489.41833	837.24670	-159.08438	584.57269	786.85626	-137.59329
16221	64.88000	435.83212	1418.78003	132.02113	520.75970	1348.76404	293.36288	464.54022	1371.27991	-70.91031	573.10748	1302.67896	94.43298	542.17908	1134.63708	321.76062	574.09882	1037.12195	327.24646	514.72711	1018.88898	240.92369	542.91870	901.08655	314.86447	614.74609	819.76300	341.21552	581.69440	801.84186	274.56299	599.11304	735.40942	369.89905	458.21048	1156.53833	-135.24600	467.90939	1075.25244	-151.95197	403.16852	1041.56213	-81.19556	456.12598	928.69232	-162.75720	545.74268	859.54816	-117.05054	489.40598	837.24213	-159.07866	584.55878	786.85162	-137.59125
16222	64.88400	435.82666	1418.77771	132.04964	520.73999	1348.75476	293.39075	464.52457	1371.28772	-70.88177	573.09143	1302.66113	94.47028	542.15039	1134.58948	321.73117	574.20959	1036.93103	327.39929	514.71960	1018.87262	240.93672	542.90662	901.06592	314.87027	614.71710	819.74646	341.22729	581.67285	801.82574	274.57352	599.08112	735.39099	369.90570	458.20520	1156.53992	-135.22615	467.85593	1075.29395	-152.01427	403.16992	1041.56360	-81.16599	456.11621	928.69574	-162.73705	545.73462	859.55109	-117.03674	489.39572	837.24396	-159.06805	584.54889	786.85095	-137.58643
16223	64.88800	435.81201	1418.77222	132.06697	520.72272	1348.73914	293.41861	464.50940	1371.29358	-70.85315	573.06952	1302.65967	94.48413	542.13129	1134.56677	321.73816	574.22101	1036.87024	327.45154	514.69928	1018.87677	240.96445	542.88928	901.05212	314.87439	614.69434	819.73022	341.23953	581.65112	801.81006	274.58447	599.04602	735.37494	369.90741	458.19891	1156.54834	-135.21219	467.92715	1075.22180	-151.85426	403.17096	1041.55688	-81.14863	456.10458	928.70099	-162.71947	545.72797	859.55878	-117.02440	489.39069	837.24561	-159.06107	584.53595	786.85297	-137.58041
16224	64.89200	435.79962	1418.76208	132.09119	520.70270	1348.72778	293.45010	464.49274	1371.29236	-70.83427	573.04858	1302.65759	94.48881	542.10303	1134.55005	321.76590	574.15271	1036.91760	327.42078	514.67761	1018.87439	240.98108	542.86945	901.03528	314.88104	614.67102	819.71765	341.25040	581.62976	801.79193	274.59042	599.01508	735.35535	369.91098	458.18423	1156.55530	-135.19492	468.02515	1075.11682	-151.63751	403.16666	1041.55420	-81.12172	456.09457	928.70752	-162.70213	545.72253	859.56763	-117.01559	489.37839	837.25006	-159.05284	584.52136	786.85681	-137.57152
